<svg width="1024" height="1024" viewBox="0 0 1024 1024" xmlns="http://www.w3.org/2000/svg">
  <defs>
    <linearGradient id="bg" x1="0" y1="0" x2="1" y2="1">
      <stop offset="0" stop-color="#eef7e9"/>
      <stop offset="1" stop-color="#2f7d59"/>
    </linearGradient>
  </defs>
  <rect width="1024" height="1024" rx="224" fill="url(#bg)"/>
  <circle cx="512" cy="512" r="288" fill="#ffffff" opacity=".92"/>
  <path d="M646 260c-147 16-244 92-291 211-36 91-23 190 22 262 8 13 27 11 32-4 49-146 133-253 256-329-112 102-181 211-210 328-4 17 13 31 28 23 146-76 245-191 261-345 6-57-19-109-54-143-11-10-27-6-44-3Z" fill="#2f7d59"/>
  <path d="M341 635c-51-78-59-169-24-258 8-21-19-37-33-19-83 105-95 257-18 378 52 82 137 135 231 150 22 3 34-24 16-37-71-52-129-120-172-214Z" fill="#84b76b" opacity=".95"/>
</svg>