<svg width="2732" height="2732" viewBox="0 0 2732 2732" xmlns="http://www.w3.org/2000/svg">
  <rect width="2732" height="2732" fill="#f4f6f1"/>
  <circle cx="1366" cy="1284" r="354" fill="#e6f0df"/>
  <path d="M1518 886c-179 22-296 119-349 263-41 111-22 230 35 316 10 16 33 13 39-5 58-177 158-306 306-398-134 123-216 254-248 394-5 21 16 38 34 27 174-93 291-232 306-418 6-68-25-129-69-168-14-12-34-6-54-11Z" fill="#2f7d59"/>
  <text x="1366" y="1810" text-anchor="middle" font-family="Arial, sans-serif" font-size="132" font-weight="700" fill="#1f2a22">Nouria</text>
  <text x="1366" y="1915" text-anchor="middle" font-family="Arial, sans-serif" font-size="54" fill="#667069">Małe notatki, duża zmiana.</text>
</svg>